<?xml version="1.0" standalone="no"?><!DOCTYPE svg PUBLIC "-//W3C//DTD SVG 1.1//EN" "http://www.w3.org/Graphics/SVG/1.1/DTD/svg11.dtd"><svg t="1565619114125" class="icon" viewBox="0 0 1041 1024" version="1.1" xmlns="http://www.w3.org/2000/svg" p-id="2675" xmlns:xlink="http://www.w3.org/1999/xlink" width="162.65625" height="160"><defs><style type="text/css"></style></defs><path d="M520.677966 478.445198c-145.789831 0-201.907345-53.80339-221.577401-107.60678H57.853107v-115.706215h347.118644v57.853108c0 13.884746 0 49.753672 115.706215 49.753672s115.706215-35.868927 115.706215-49.753672v-57.853108h347.118644v115.706215h-241.247458c-19.670056 53.80339-75.787571 107.60678-221.577401 107.60678z" p-id="2676"></path><path d="M1041.355932 689.030508H0V300.836158L136.533333 0h768.289266L1041.355932 300.836158z m-925.649717-115.706214h809.943503V325.712994L830.770621 115.706215H210.585311L115.706215 325.712994z" p-id="2677"></path><path d="M1041.355932 1024H0v-415.963842h115.706215v300.257627h809.943503v-277.116384h115.706214v392.822599z" p-id="2678"></path></svg>