<?xml version="1.0" standalone="no"?><!DOCTYPE svg PUBLIC "-//W3C//DTD SVG 1.1//EN" "http://www.w3.org/Graphics/SVG/1.1/DTD/svg11.dtd"><svg t="1565619211659" class="icon" viewBox="0 0 1024 1024" version="1.1" xmlns="http://www.w3.org/2000/svg" p-id="2791" xmlns:xlink="http://www.w3.org/1999/xlink" width="160" height="160"><defs><style type="text/css"></style></defs><path d="M509.691094 1024L47.909808 813.889515v-750.394588L509.691094 0l461.781285 65.803833v750.394589z m-346.335964-284.572717l346.335964 158.16009 346.335963-158.16009V166.241263L509.691094 115.445321l-346.335964 50.795942z" p-id="2792"></path><path d="M517.195039 555.869222a181.826381 181.826381 0 1 1 181.249155-181.249154 181.826381 181.826381 0 0 1-181.249155 181.249154z m0-247.630214a66.38106 66.38106 0 1 0 65.803834 66.38106 66.38106 66.38106 0 0 0-65.803834-66.38106z" p-id="2793"></path><path d="M459.472379 498.146561h115.445321v274.759865h-115.445321z" p-id="2794"></path><path d="M517.195039 586.462232h138.534386v115.445322h-138.534386z" p-id="2795"></path></svg>