<?xml version="1.0" standalone="no"?><!DOCTYPE svg PUBLIC "-//W3C//DTD SVG 1.1//EN" "http://www.w3.org/Graphics/SVG/1.1/DTD/svg11.dtd"><svg t="1567387127657" class="icon" viewBox="0 0 1024 1024" version="1.1" xmlns="http://www.w3.org/2000/svg" p-id="3902" xmlns:xlink="http://www.w3.org/1999/xlink" width="160" height="160"><defs><style type="text/css"></style></defs><path d="M816.009587 384.076693v61.354104h122.708208v-61.354104z m-245.416417 61.354104h122.708208v-61.354104H570.59317z m-245.416417 0h122.708208v-61.354104H325.176753z m-245.416417 0h122.708208v-61.354104H79.760336z" p-id="3903"></path><path d="M1005.593769 0v445.430797h-68.103056v-61.354104h-122.708209v61.354104h-120.254044v-61.354104h-122.708208v61.354104H451.566207v-61.354104h-122.708208v61.354104H208.603954v-61.354104h-122.708208v61.354104H18.406231V0h987.187538z" p-id="3904"></path><path d="M85.895746 384.076693h122.708208v578.569203h-122.708208zM328.857999 384.076693h122.708208v578.569203h-122.708208zM571.820252 384.076693h122.708208v578.569203h-122.708208zM814.782504 384.076693h122.708209v578.569203h-122.708209z" p-id="3905"></path><path d="M20.860395 901.291791h983.506292v122.708209H20.860395z" p-id="3906"></path></svg>